<?xml version="1.0" encoding="utf-8"?>
<!-- Generator: Adobe Illustrator 26.2.1, SVG Export Plug-In . SVG Version: 6.00 Build 0)  -->
<svg version="1.1" id="Layer_1" xmlns="http://www.w3.org/2000/svg" xmlns:xlink="http://www.w3.org/1999/xlink" x="0px" y="0px"
	 viewBox="0 0 595.28 841.89" style="enable-background:new 0 0 595.28 841.89;" xml:space="preserve">
<style type="text/css">
	.st0{fill:#0D73BB;}
</style>
<path class="st0" d="M296.67,423.06c0-1.16,0.3-2.36-1.29-2.36c-1.49,0-1.32,1.27-1.32,2.36H296.67z M294.06,423.5v1.39
	c0,1.22,0.07,2.36,1.59,2.36c1.29,0,2.27-0.9,2.63-2.08h0.45c-0.47,1.68-1.7,2.43-3.44,2.43c-1.95,0-3.36-1.82-3.36-3.6
	c0-1.91,1.61-3.65,3.56-3.65c1.66,0,3.2,1.11,3.2,2.83c0,0.37-0.16,0.31-0.45,0.31h-4.18V423.5z"/>
<path class="st0" d="M308.7,420.78c-0.95,0-1.88,1.25-1.88,1.87v2.11c0,1.05,0.75,2.14,1.85,2.14c0.8,0,1.25-0.41,1.25-1.23v-3.47
	C309.92,421.32,309.68,420.78,308.7,420.78"/>
<path class="st0" d="M308.83,427.22c-0.87,0-1.61-0.34-1.97-1.15h-0.03v4.3h1.12v0.4h-4.01v-0.4h1.15v-9.4h-1.17v-0.41
	c0.95,0.03,1.93-0.03,2.91-0.06v1.31h0.03c0.34-0.74,1.14-1.34,1.97-1.34c1.75,0,3,1.65,3,3.36
	C311.83,425.45,310.56,427.22,308.83,427.22 M310.12,415.4h-3.89V415h1.11v-5.61h-1.11v-0.4c0.9,0.03,1.83-0.03,2.76-0.07V415h1.13
	V415.4z M308.05,405.05c0.44,0,0.9,0.39,0.9,0.88c0,0.55-0.38,0.97-0.9,0.97c-0.47,0-0.82-0.5-0.82-0.97
	C307.22,405.49,307.63,405.05,308.05,405.05 M298.1,415.4h-3.89V415h1.11v-5.61h-1.11v-0.4c0.9,0.03,1.83-0.03,2.76-0.07V415h1.13
	V415.4z M296.03,405.05c0.44,0,0.9,0.39,0.9,0.88c0,0.55-0.38,0.97-0.9,0.97c-0.47,0-0.82-0.5-0.82-0.97
	C295.21,405.49,295.62,405.05,296.03,405.05 M294.1,403.85l-14.14,13.9h21.47v-8.93h0.8v8.93h0.01v0.02h9.56v0.77h-9.55v20.3
	l13.03-12.16v-22.82H294.1V403.85z"/>
</svg>
