<?xml version="1.0" encoding="utf-8"?>
<!-- Generator: Adobe Illustrator 26.3.1, SVG Export Plug-In . SVG Version: 6.00 Build 0)  -->
<svg version="1.1" id="Layer_1" xmlns="http://www.w3.org/2000/svg" xmlns:xlink="http://www.w3.org/1999/xlink" x="0px" y="0px"
	 viewBox="0 0 141.7 141.7" style="enable-background:new 0 0 141.7 141.7;" xml:space="preserve">
<style type="text/css">
	.st0{fill:#0D73BB;}
</style>
<g>
	<path class="st0" d="M67.8,76.4c0-3.8,1-7.6-4.2-7.6c-4.8,0-4.3,4.1-4.3,7.6H67.8z M59.3,77.8v4.5c0,4,0.2,7.6,5.2,7.6
		c4.2,0,7.4-2.9,8.5-6.7h1.5c-1.5,5.4-5.5,7.9-11.1,7.9c-6.3,0-10.9-5.9-10.9-11.7c0-6.2,5.2-11.8,11.5-11.8
		c5.4,0,10.4,3.6,10.4,9.2c0,1.2-0.5,1-1.5,1L59.3,77.8L59.3,77.8L59.3,77.8z"/>
	<path class="st0" d="M106.7,69c-3.1,0-6.1,4-6.1,6.1v6.8c0,3.4,2.4,6.9,6,6.9c2.6,0,4-1.3,4-4V73.6C110.7,70.8,109.9,69,106.7,69"
		/>
	<path class="st0" d="M107.2,89.9c-2.8,0-5.2-1.1-6.4-3.7h-0.1v13.9h3.6v1.3h-13v-1.3H95V69.6h-3.8v-1.3c3.1,0.1,6.3-0.1,9.4-0.2
		v4.2h0.1c1.1-2.4,3.7-4.3,6.4-4.3c5.7,0,9.7,5.3,9.7,10.9C116.9,84.1,112.8,89.9,107.2,89.9 M111.3,51.6H98.7v-1.3h3.6V32.1h-3.6
		v-1.3c2.9,0.1,5.9-0.1,8.9-0.2v19.7h3.7V51.6z M104.6,18.1c1.4,0,2.9,1.3,2.9,2.9c0,1.8-1.2,3.1-2.9,3.1c-1.5,0-2.7-1.6-2.7-3.1
		C102,19.5,103.3,18.1,104.6,18.1 M72.4,51.6H59.8v-1.3h3.6V32.1h-3.6v-1.3c2.9,0.1,5.9-0.1,8.9-0.2v19.7h3.7V51.6z M65.7,18.1
		c1.4,0,2.9,1.3,2.9,2.9c0,1.8-1.2,3.1-2.9,3.1c-1.5,0-2.7-1.6-2.7-3.1C63,19.5,64.4,18.1,65.7,18.1 M59.4,14.2l-45.8,45h69.6V30.3
		h2.6v28.9h0v0.1h31v2.5H85.8v65.8l42.2-39.4V14.2L59.4,14.2L59.4,14.2z"/>
</g>
</svg>
